<svg xmlns="http://www.w3.org/2000/svg" viewBox="0 0 14.97 17.38"><g id="Layer_2" data-name="Layer 2"><g id="Layer_2-2" data-name="Layer 2"><path d="M9.41,15a3.12,3.12,0,0,1-5.87.5c.32,0,.67,0,1,0A21.76,21.76,0,0,0,8,15.29C8.48,15.21,9,15.13,9.41,15Z"/><path d="M5.75,1.12a5.3,5.3,0,0,0-1.47.43.86.86,0,0,1,0-.32,1.23,1.23,0,0,1,2.44-.18H6.61A4.91,4.91,0,0,0,5.75,1.12Z"/><path d="M15,11.69a.72.72,0,0,1-.26.55,15.45,15.45,0,0,1-5.21,2c-.51.12-1.05.22-1.62.31A19.84,19.84,0,0,1,5,14.8H4.53a21.76,21.76,0,0,1-3.69-.33l-.27-.05a.65.65,0,0,1-.52-.29,1.24,1.24,0,0,1,.17-1l2-3.89-.1-.18A5,5,0,0,1,1.6,7.38,5.06,5.06,0,0,1,4.52,2a4.84,4.84,0,0,1,1.31-.39,5.12,5.12,0,0,1,.78-.06h0a5,5,0,0,1,5,4.29,4.88,4.88,0,0,1,0,1.79l0,.2,3.12,3.09A1.05,1.05,0,0,1,15,11.69Z"/></g></g></svg>