<svg xmlns="http://www.w3.org/2000/svg" viewBox="0 0 15.47 13.06"><g id="Layer_2" data-name="Layer 2"><g id="Layer_1-2" data-name="Layer 1"><path d="M14.29,1.52c-1,0-2.1,0-3.14,0-.16,0-.25,0-.3-.19L10.51.47A.69.69,0,0,0,9.84,0h-4a.75.75,0,0,0-.76.55c-.09.25-.21.49-.3.73a.31.31,0,0,1-.34.22c-1,0-2,0-3,0A1.3,1.3,0,0,0,0,2.94V11.6a1.3,1.3,0,0,0,1.45,1.46h12.6a1.29,1.29,0,0,0,1.42-1.43V2.82A1.22,1.22,0,0,0,14.29,1.52Zm-6.84,9.4a3.65,3.65,0,1,1,3.94-3.4A3.69,3.69,0,0,1,7.45,10.92Zm5.2-6.68A.69.69,0,0,1,12,3.56a.66.66,0,0,1,.67-.65.68.68,0,0,1,.67.67A.7.7,0,0,1,12.65,4.24Z"/><path d="M10.27,7.23A2.54,2.54,0,0,1,5.2,7.3a2.54,2.54,0,0,1,5.07-.07Z"/></g></g></svg>