<svg xmlns="http://www.w3.org/2000/svg" viewBox="0 0 105.92 20.29"><g id="Layer_2" data-name="Layer 2"><g id="Layer_1-2" data-name="Layer 1"><path d="M10.15,0A10.15,10.15,0,1,0,20.29,10.15,10.14,10.14,0,0,0,10.15,0Zm5.6,16.93H12.91v-6.1H7.59v6.1H4.76V3.26H7.59V8.47h5.32V3.26h2.84Z"/><path d="M31.53,15.56a5.17,5.17,0,0,1-4.29,1.75,5.19,5.19,0,0,1-4.3-1.75,6.47,6.47,0,0,1-1.42-4.2,6.54,6.54,0,0,1,1.42-4.19,5.18,5.18,0,0,1,4.3-1.78,5.16,5.16,0,0,1,4.29,1.78A6.48,6.48,0,0,1,33,11.36,6.41,6.41,0,0,1,31.53,15.56ZM29.2,14a4.29,4.29,0,0,0,.68-2.59,4.29,4.29,0,0,0-.68-2.59,2.62,2.62,0,0,0-3.95,0,4.22,4.22,0,0,0-.69,2.59A4.22,4.22,0,0,0,25.25,14a2.6,2.6,0,0,0,3.95,0Z"/><path d="M49,5.79a3.31,3.31,0,0,1,1.3,1,3.17,3.17,0,0,1,.64,1.44A10.88,10.88,0,0,1,51,9.89l0,7H48V9.81a2.27,2.27,0,0,0-.2-1A1.46,1.46,0,0,0,46.37,8,1.68,1.68,0,0,0,44.7,9a3.17,3.17,0,0,0-.23,1.29v6.65H41.52V10.28a3.89,3.89,0,0,0-.2-1.45A1.44,1.44,0,0,0,39.87,8a1.73,1.73,0,0,0-1.68.81A3.09,3.09,0,0,0,38,10.2v6.73H35V5.77h2.84V7.4a4.57,4.57,0,0,1,1-1.24,4.08,4.08,0,0,1,4.27-.09,3.29,3.29,0,0,1,1,1.34A3.71,3.71,0,0,1,45.52,6a4.31,4.31,0,0,1,2-.46A3.94,3.94,0,0,1,49,5.79Z"/><path d="M61,6a4.57,4.57,0,0,1,1.93,1.65,5.45,5.45,0,0,1,.89,2.31,14.7,14.7,0,0,1,.1,2.22H55.78A2.66,2.66,0,0,0,57,14.52a3,3,0,0,0,1.61.42,2.49,2.49,0,0,0,1.62-.51,2.4,2.4,0,0,0,.6-.77h3a3.63,3.63,0,0,1-1.09,2,5.41,5.41,0,0,1-4.2,1.63,6.13,6.13,0,0,1-3.94-1.37q-1.71-1.38-1.71-4.48A6.06,6.06,0,0,1,54.37,7a5.37,5.37,0,0,1,4-1.55A6.37,6.37,0,0,1,61,6ZM56.63,8.5a3.12,3.12,0,0,0-.78,1.73h5a2.44,2.44,0,0,0-.77-1.76,2.59,2.59,0,0,0-1.74-.6A2.32,2.32,0,0,0,56.63,8.5Z"/><path d="M68.38,16.93H65.46V1.82h2.92Z"/><path d="M75.66,10.13a5,5,0,0,0,1.17-.25A.89.89,0,0,0,77.46,9,1,1,0,0,0,77,8.1a3,3,0,0,0-1.42-.27,1.87,1.87,0,0,0-1.48.52,2.07,2.07,0,0,0-.42,1H70.83A4.27,4.27,0,0,1,71.66,7q1.16-1.47,4-1.47a7.23,7.23,0,0,1,3.28.72A2.81,2.81,0,0,1,80.36,9v5.13c0,.36,0,.79,0,1.29a1.66,1.66,0,0,0,.17.78,1,1,0,0,0,.44.34v.43H77.81a3.68,3.68,0,0,1-.19-.63c0-.2-.06-.43-.08-.68a6.1,6.1,0,0,1-1.4,1.12,4.29,4.29,0,0,1-2.15.54,3.68,3.68,0,0,1-2.52-.87,3.07,3.07,0,0,1-1-2.45,3.2,3.2,0,0,1,1.6-3,7.44,7.44,0,0,1,2.59-.72Zm1.79,1.37a3.75,3.75,0,0,1-.57.28,4.8,4.8,0,0,1-.78.2l-.67.12a4.3,4.3,0,0,0-1.34.4,1.34,1.34,0,0,0-.69,1.24,1.29,1.29,0,0,0,.42,1.08,1.55,1.55,0,0,0,1,.34,3.07,3.07,0,0,0,1.77-.56,2.34,2.34,0,0,0,.84-2Z"/><path d="M91.93,6.39a3.71,3.71,0,0,1,1.1,3v7.53H90v-6.8a3.18,3.18,0,0,0-.23-1.35,1.64,1.64,0,0,0-1.63-.86,2,2,0,0,0-2,1.26,4.34,4.34,0,0,0-.28,1.7v6H82.93V5.77h2.83V7.4a5.15,5.15,0,0,1,1.07-1.24,3.66,3.66,0,0,1,2.27-.67A4.32,4.32,0,0,1,91.93,6.39Z"/><path d="M101.67,5.93A3.54,3.54,0,0,1,103,7.17V1.84h3V16.93h-2.84V15.38a4.13,4.13,0,0,1-1.43,1.45,4,4,0,0,1-2,.45,4.18,4.18,0,0,1-3.3-1.58A6.12,6.12,0,0,1,95,11.63a7,7,0,0,1,1.31-4.5,4.29,4.29,0,0,1,3.53-1.64A3.69,3.69,0,0,1,101.67,5.93Zm.72,8a4.11,4.11,0,0,0,.64-2.39,3.68,3.68,0,0,0-1-2.94A2.28,2.28,0,0,0,100.52,8a2,2,0,0,0-1.88,1,4.5,4.5,0,0,0-.6,2.4,4.42,4.42,0,0,0,.61,2.48,2.06,2.06,0,0,0,1.85.93A2.17,2.17,0,0,0,102.39,13.9Z"/></g></g></svg>