<svg xmlns="http://www.w3.org/2000/svg" viewBox="0 0 122.74 23.31"><defs><style>.cls-1{fill:#fff;}</style></defs><g id="Layer_2" data-name="Layer 2"><g id="Layer_1-2" data-name="Layer 1"><rect width="122.74" height="23.31" rx="11.66"/><path class="cls-1" d="M14.68,9.91h5.86V4.6h2V18.17h-2V11.84H14.68v6.33h-2V4.6h2Z"/><path class="cls-1" d="M25.05,13.83a4.26,4.26,0,0,1,1.33-3.15,4.67,4.67,0,0,1,6.49,0,4.38,4.38,0,0,1,1.32,3.22,4.32,4.32,0,0,1-1.33,3.23,4.53,4.53,0,0,1-3.28,1.29,4.33,4.33,0,0,1-3.22-1.32A4.44,4.44,0,0,1,25.05,13.83Zm2,0a2.88,2.88,0,0,0,.68,2,2.68,2.68,0,0,0,3.71,0,2.85,2.85,0,0,0,.7-2,2.81,2.81,0,0,0-.7-2,2.62,2.62,0,0,0-3.69,0A2.73,2.73,0,0,0,27.08,13.87Z"/><path class="cls-1" d="M36.28,9.61h2v.79a4.32,4.32,0,0,1,1-.81,2.49,2.49,0,0,1,1.09-.22,2.63,2.63,0,0,1,2.29,1.27,3,3,0,0,1,2.52-1.27q2.9,0,2.9,3.51v5.29H46V13.42a3.66,3.66,0,0,0-.3-1.74,1.08,1.08,0,0,0-1-.52,1.28,1.28,0,0,0-1.19.61,4,4,0,0,0-.38,2v4.42h-2V13.45c0-1.53-.44-2.29-1.32-2.29a1.34,1.34,0,0,0-1.22.62,4,4,0,0,0-.38,2v4.42h-2Z"/><path class="cls-1" d="M58.32,14.36H52.18A2.63,2.63,0,0,0,52.87,16a2.07,2.07,0,0,0,1.55.61,2,2,0,0,0,1.23-.35A5.22,5.22,0,0,0,56.73,15l1.67.93a6.46,6.46,0,0,1-.82,1.13,4.44,4.44,0,0,1-.92.78,3.61,3.61,0,0,1-1.07.44,5.35,5.35,0,0,1-1.24.14,4,4,0,0,1-3.07-1.23,4.59,4.59,0,0,1-1.16-3.29,4.76,4.76,0,0,1,1.12-3.29,3.91,3.91,0,0,1,3-1.24,3.86,3.86,0,0,1,3,1.21,4.77,4.77,0,0,1,1.09,3.31Zm-2-1.62a1.9,1.9,0,0,0-2-1.58,2.09,2.09,0,0,0-.67.11,1.83,1.83,0,0,0-.58.32,1.88,1.88,0,0,0-.44.49,2.15,2.15,0,0,0-.28.66Z"/><path class="cls-1" d="M62.46,3.33V18.17h-2V3.33Z"/><path class="cls-1" d="M71.28,9.61h2v8.56h-2v-.89a3.81,3.81,0,0,1-5.57-.14,4.83,4.83,0,0,1-1.15-3.27,4.64,4.64,0,0,1,1.15-3.21A3.71,3.71,0,0,1,68.6,9.37a3.62,3.62,0,0,1,2.68,1.24Zm-4.7,4.26a3,3,0,0,0,.66,2,2.16,2.16,0,0,0,1.71.78,2.27,2.27,0,0,0,1.77-.75,2.9,2.9,0,0,0,.68-2,2.92,2.92,0,0,0-.68-2,2.34,2.34,0,0,0-3.46,0A2.87,2.87,0,0,0,66.58,13.87Z"/><path class="cls-1" d="M75.76,9.61h2v.79a3.26,3.26,0,0,1,2.34-1,3,3,0,0,1,2.33,1,3.84,3.84,0,0,1,.72,2.61v5.24h-2V13.39a3.21,3.21,0,0,0-.35-1.75,1.42,1.42,0,0,0-1.25-.49,1.54,1.54,0,0,0-1.4.65,4.5,4.5,0,0,0-.4,2.24v4.13h-2Z"/><path class="cls-1" d="M92,3.33h2V18.17H92v-.89a3.71,3.71,0,0,1-2.65,1.14,3.8,3.8,0,0,1-2.92-1.28,4.78,4.78,0,0,1-1.15-3.27,4.59,4.59,0,0,1,1.15-3.2,3.69,3.69,0,0,1,2.88-1.3A3.63,3.63,0,0,1,92,10.61Zm-4.7,10.54a3,3,0,0,0,.66,2,2.16,2.16,0,0,0,1.71.78,2.27,2.27,0,0,0,1.77-.75,3,3,0,0,0,.68-2,3,3,0,0,0-.68-2,2.24,2.24,0,0,0-1.76-.76,2.19,2.19,0,0,0-1.7.77A2.87,2.87,0,0,0,87.25,13.87Z"/><polygon class="cls-1" points="108.34 4.87 109.16 8.41 111.54 5.66 110.62 9.18 114.01 7.84 111.56 10.54 115.18 10.93 111.76 12.17 114.78 14.2 111.17 13.71 112.91 16.91 109.94 14.81 109.98 18.45 108.34 15.2 106.69 18.45 106.73 14.81 103.77 16.91 105.5 13.71 101.89 14.2 104.92 12.17 101.5 10.93 105.11 10.54 102.67 7.84 106.05 9.18 105.13 5.66 107.51 8.41 108.34 4.87"/></g></g></svg>