<svg xmlns="http://www.w3.org/2000/svg" viewBox="0 0 33.19 33.19"><defs><style>.cls-1{fill:#e5e5e5;}</style></defs><g id="Layer_2" data-name="Layer 2"><g id="Layer_1-2" data-name="Layer 1"><circle class="cls-1" cx="16.59" cy="16.59" r="16.59"/><path d="M23.28,16.21a6.45,6.45,0,0,1-6.69,6.18,7.09,7.09,0,0,1-3-.68,6.53,6.53,0,0,1-2-1.47,5.89,5.89,0,0,1-1.61-4A6.44,6.44,0,0,1,16.59,10,6.44,6.44,0,0,1,23.28,16.21Z"/><path d="M15.39,20.85,11.08,24l1.7-4.62A8.81,8.81,0,0,0,15.39,20.85Z"/></g></g></svg>