<svg xmlns="http://www.w3.org/2000/svg" viewBox="0 0 26.66 26.66"><defs><style>.cls-1{fill:#dcdcdc;}</style></defs><g id="Layer_2" data-name="Layer 2"><g id="Layer_1-2" data-name="Layer 1"><circle class="cls-1" cx="13.33" cy="13.33" r="13.33"/><path d="M15,18.68a2.63,2.63,0,0,1-2.56,2A2.6,2.6,0,0,1,10,19.1q.4,0,.87,0a18.18,18.18,0,0,0,2.88-.23C14.17,18.83,14.57,18.76,15,18.68Z"/><path d="M11.87,6.94a4.67,4.67,0,0,0-1.24.36A.59.59,0,0,1,10.58,7a1,1,0,0,1,2.06-.15h-.05A4.28,4.28,0,0,0,11.87,6.94Z"/><path d="M19.65,15.86a.65.65,0,0,1-.22.47A13.21,13.21,0,0,1,15,18c-.43.1-.89.19-1.37.26a16.1,16.1,0,0,1-2.45.22h-.37a18.85,18.85,0,0,1-3.12-.27l-.23,0a.51.51,0,0,1-.43-.24,1,1,0,0,1,.14-.85l1.72-3.29-.08-.15a4.28,4.28,0,0,1,.3-4.59,4.23,4.23,0,0,1,1.69-1.37,4,4,0,0,1,1.1-.33,4.89,4.89,0,0,1,.66,0h0a4.27,4.27,0,0,1,4.19,3.62,4,4,0,0,1,0,1.51l0,.17,2.63,2.61A.91.91,0,0,1,19.65,15.86Z"/></g></g></svg>